HIERARCHY
ROOT Pelvis
{
	OFFSET 0.000000 0.000000 0.000000
	CHANNELS 6 Xposition Yposition Zposition Xrotation Yrotation Zrotation
	JOINT LeftUpLeg_virtual
	{
		OFFSET 0.000000 0.000000 0.000000
		CHANNELS 3 Xrotation Yrotation Zrotation
		JOINT LeftUpLeg
		{
			OFFSET 18.735201 -5.666702 -4.541200
			CHANNELS 3 Xrotation Yrotation Zrotation
			JOINT LeftLeg
			{
				OFFSET -0.021200 -31.938179 0.493100
				CHANNELS 3 Xrotation Yrotation Zrotation
				JOINT LeftFoot
				{
					OFFSET 0.021200 -31.938179 -4.336299
					CHANNELS 3 Xrotation Yrotation Zrotation
					JOINT LeftToeBase
					{
						OFFSET 0.943001 -26.722000 15.023500
						CHANNELS 3 Xrotation Yrotation Zrotation
						End Site
						{
							OFFSET 0 0 0
						}
					}
				}
			}
		}
	}
	JOINT RightUpLeg_virtual
	{
		OFFSET 0.000000 0.000000 0.000000
		CHANNELS 3 Xrotation Yrotation Zrotation
		JOINT RightUpLeg
		{
			OFFSET -18.735201 -5.666702 -4.541200
			CHANNELS 3 Xrotation Yrotation Zrotation
			JOINT RightLeg
			{
				OFFSET 0.018946 -31.938133 0.493100
				CHANNELS 3 Xrotation Yrotation Zrotation
				JOINT RightFoot
				{
					OFFSET -0.018946 -31.938126 -4.336299
					CHANNELS 3 Xrotation Yrotation Zrotation
					JOINT RightToeBase
					{
						OFFSET -0.943001 -26.722004 15.023500
						CHANNELS 3 Xrotation Yrotation Zrotation
						End Site
						{
							OFFSET 0 0 0
						}
					}
				}
			}
		}
	}
	JOINT Hips_virtual
	{
		OFFSET 0.000000 0.000000 0.000000
		CHANNELS 3 Xrotation Yrotation Zrotation
		JOINT Hips
		{
			OFFSET -0.000000 -0.000000 -0.000000
			CHANNELS 3 Xrotation Yrotation Zrotation
			JOINT Spine
			{
				OFFSET 0.000000 10.199997 -0.299500
				CHANNELS 3 Xrotation Yrotation Zrotation
				JOINT Spine1
				{
					OFFSET 0.000000 11.900002 -1.516600
					CHANNELS 3 Xrotation Yrotation Zrotation
					JOINT Spine2
					{
						OFFSET 0.000000 13.600006 -2.842500
						CHANNELS 3 Xrotation Yrotation Zrotation
						JOINT Neck_virtual
						{
							OFFSET 0.000000 0.000000 0.000000
							CHANNELS 3 Xrotation Yrotation Zrotation
							JOINT Neck
							{
								OFFSET 0.000000 9.624100 -2.890100
								CHANNELS 3 Xrotation Yrotation Zrotation
								JOINT Head
								{
									OFFSET 0.000000 14.068802 -1.351900
									CHANNELS 3 Xrotation Yrotation Zrotation
									End Site
									{
										OFFSET 0 0 0
									}
								}
							}
						}
						JOINT LeftShoulder_virtual
						{
							OFFSET 0.000000 0.000000 0.000000
							CHANNELS 3 Xrotation Yrotation Zrotation
							JOINT LeftShoulder
							{
								OFFSET 15.263000 10.923401 -0.547700
								CHANNELS 3 Xrotation Yrotation Zrotation
								JOINT LeftArm
								{
									OFFSET 25.438599 -2.830597 -13.032500
									CHANNELS 3 Xrotation Yrotation Zrotation
									JOINT LeftForeArm
									{
										OFFSET 29.960503 0.000000 0.000000
										CHANNELS 3 Xrotation Yrotation Zrotation
										JOINT LeftHand
										{
											OFFSET 27.849251 0.000000 0.000000
											CHANNELS 3 Xrotation Yrotation Zrotation
											End Site
											{
												OFFSET 0 0 0
											}
										}
									}
								}
							}
						}
						JOINT RightShoulder_virtual
						{
							OFFSET 0.000000 0.000000 0.000000
							CHANNELS 3 Xrotation Yrotation Zrotation
							JOINT RightShoulder
							{
								OFFSET -15.263000 10.923401 -0.547700
								CHANNELS 3 Xrotation Yrotation Zrotation
								JOINT RightArm
								{
									OFFSET -25.438599 -2.830597 -13.032500
									CHANNELS 3 Xrotation Yrotation Zrotation
									JOINT RightForeArm
									{
										OFFSET -29.960503 0.000000 0.000000
										CHANNELS 3 Xrotation Yrotation Zrotation
										JOINT RightHand
										{
											OFFSET -27.849251 0.000000 0.000000
											CHANNELS 3 Xrotation Yrotation Zrotation
											End Site
											{
												OFFSET 0 0 0
											}
										}
									}
								}
							}
						}
					}
				}
			}
		}
	}
}
MOTION
Frames: 11
Frame Time: 0.03333333
2.463651 112.685135 0.974255 0.000000 0.000000 0.000000 -29.757813 -3.968132 1.195073 -76.430862 1.289987 19.622867 44.590572 15.357202 -13.550900 -9.535843 20.041448 -14.057281 0.000000 0.000000 0.000000 -35.862099 9.371647 0.929936 -73.770182 4.624829 -14.277236 44.643527 -20.008592 5.157055 -12.141331 -23.514574 4.572749 0.000000 0.000000 0.000000 -20.516538 -0.934042 1.864692 -90.675310 2.134600 6.661901 18.065557 2.737508 -1.439945 11.290099 1.390348 -1.872496 0.000000 0.000000 0.000000 13.734787 1.265205 -3.561607 2.812309 0.798520 -0.607121 0.000000 0.000000 0.000000 13.906655 3.298400 -0.078055 5.249648 5.789916 -2.244667 -5.679729 -31.629506 -54.746722 23.750414 -82.565471 21.066870 0.000000 0.000000 0.000000 14.108090 3.734648 0.187025 3.930560 5.194506 13.245013 -20.840545 38.250736 48.842321 -176.829035 64.112684 178.517007 0.000000 0.000000 0.000000 
2.433743 112.641838 1.055521 0.000000 0.000000 0.000000 -29.816409 -4.082469 1.226976 -76.473960 1.227851 19.645924 44.782152 15.398680 -13.622093 -9.405325 20.105961 -14.107837 0.000000 0.000000 0.000000 -35.953102 9.250193 0.901986 -73.863769 4.609188 -14.276608 44.823793 -19.980786 5.138729 -12.017714 -23.474921 4.534330 0.000000 0.000000 0.000000 -20.587455 -1.375485 1.852097 -90.036947 2.623501 7.195350 17.651656 2.619686 -1.412557 11.008484 1.325910 -1.826237 0.000000 0.000000 0.000000 13.588713 1.221485 -3.493872 2.772973 0.807834 -0.601929 0.000000 0.000000 0.000000 13.671153 3.201309 -0.028558 5.274925 5.893058 -2.266088 -5.508647 -31.293721 -54.850340 22.431854 -82.218375 19.664420 0.000000 0.000000 0.000000 13.853666 3.608808 0.243806 3.932452 5.188989 13.380506 -21.058614 38.355532 49.092203 -176.908702 64.138072 178.550256 0.000000 0.000000 0.000000 
2.407488 112.592407 1.142588 0.000000 0.000000 0.000000 -29.878372 -4.199139 1.253778 -76.524674 1.167114 19.669036 45.070079 15.452144 -13.726023 -9.211045 20.192874 -14.182270 0.000000 0.000000 0.000000 -36.056794 9.130922 0.886982 -73.970901 4.590334 -14.270049 45.160798 -19.973341 5.148862 -11.811570 -23.451135 4.499507 0.000000 0.000000 0.000000 -20.660455 -1.864484 1.831613 -89.348143 3.140030 7.725735 17.180967 2.461617 -1.368412 10.691810 1.241895 -1.769386 0.000000 0.000000 0.000000 13.410726 1.148010 -3.424474 2.719804 0.804394 -0.600319 0.000000 0.000000 0.000000 13.391973 3.081966 0.032474 5.269689 5.953461 -2.270917 -5.418208 -30.987940 -55.006382 21.225214 -81.924233 18.374881 0.000000 0.000000 0.000000 13.563828 3.451718 0.311496 3.919678 5.093340 13.530036 -21.150410 38.433939 49.364168 -176.994435 64.156418 178.622151 0.000000 0.000000 0.000000 
2.389169 112.544762 1.241138 0.000000 0.000000 0.000000 -29.920740 -4.278349 1.269187 -76.562008 1.127371 19.685292 45.456480 15.519561 -13.867491 -8.939796 20.309673 -14.289026 0.000000 0.000000 0.000000 -36.176121 9.092856 0.815126 -74.089248 4.626899 -14.312555 45.645485 -19.987147 5.145739 -11.550214 -23.418506 4.406177 0.000000 0.000000 0.000000 -20.720665 -2.454601 1.789338 -88.558293 3.598244 8.156083 16.672345 2.246720 -1.308807 10.350867 1.130487 -1.702520 0.000000 0.000000 0.000000 13.177554 1.041755 -3.341426 2.642413 0.784831 -0.595168 0.000000 0.000000 0.000000 13.069186 2.933036 0.105029 5.234132 5.937640 -2.256873 -5.246797 -30.728516 -55.218388 20.136772 -81.617605 17.152598 0.000000 0.000000 0.000000 13.251235 3.264676 0.378829 3.907496 4.916111 13.650758 -21.116421 38.522933 49.538488 -177.144754 64.206128 178.759192 0.000000 0.000000 0.000000 
2.396317 112.486000 1.343346 0.000000 0.000000 0.000000 -29.951401 -4.370408 1.265471 -76.591330 1.095582 19.691352 45.897485 15.596595 -14.035120 -8.628143 20.446147 -14.418307 0.000000 0.000000 0.000000 -36.304477 9.014187 0.751948 -74.217539 4.646756 -14.341625 45.990795 -20.016136 5.134056 -11.379470 -23.402540 4.308671 0.000000 0.000000 0.000000 -20.772069 -3.082068 1.736475 -87.665246 4.068962 8.568453 16.137334 1.994434 -1.239400 9.992550 1.001169 -1.628681 0.000000 0.000000 0.000000 12.920198 0.901637 -3.241250 2.555525 0.747740 -0.583825 0.000000 0.000000 0.000000 12.720097 2.762338 0.187457 5.181873 5.865675 -2.221678 -4.908267 -30.471680 -55.439119 19.128247 -81.229425 15.953257 0.000000 0.000000 0.000000 12.916537 3.056090 0.445744 3.892597 4.679138 13.750821 -20.984902 38.608420 49.674535 -177.327598 64.246023 178.939072 0.000000 0.000000 0.000000 
2.412898 112.439163 1.432016 0.000000 0.000000 0.000000 -29.972000 -4.449660 1.257905 -76.612880 1.071537 19.695120 46.336475 15.716050 -14.205704 -8.326165 20.619504 -14.520514 0.000000 0.000000 0.000000 -36.423363 8.999343 0.729662 -74.334287 4.668566 -14.350823 46.372401 -20.040202 5.134861 -11.189090 -23.384457 4.227981 0.000000 0.000000 0.000000 -20.822636 -3.708339 1.674300 -86.710358 4.589355 8.981927 15.587405 1.721419 -1.167108 9.624138 0.862485 -1.551199 0.000000 0.000000 0.000000 12.619361 0.759624 -3.149442 2.449598 0.713324 -0.577961 0.000000 0.000000 0.000000 12.368576 2.581986 0.262266 5.139317 5.779768 -2.229029 -4.522624 -30.209729 -55.675683 18.187892 -80.806848 14.798710 0.000000 0.000000 0.000000 12.554189 2.839055 0.509687 3.863714 4.424418 13.828038 -20.840435 38.695576 49.787749 -177.528610 64.266712 179.131970 0.000000 0.000000 0.000000 
2.427994 112.397263 1.533447 0.000000 0.000000 0.000000 -30.019491 -4.513919 1.237588 -76.661087 1.053716 19.687820 46.791655 15.839161 -14.381928 -8.017494 20.797059 -14.623160 0.000000 0.000000 0.000000 -36.520659 8.968595 0.691080 -74.431290 4.689393 -14.373413 46.759137 -20.073110 5.142250 -11.005304 -23.373362 4.149297 0.000000 0.000000 0.000000 -20.885610 -4.341533 1.608465 -85.747335 5.095589 9.410487 15.023870 1.430299 -1.094716 9.246204 0.715699 -1.471414 0.000000 0.000000 0.000000 12.311387 0.604907 -3.054812 2.342221 0.673519 -0.571475 0.000000 0.000000 0.000000 11.987277 2.384484 0.337711 5.075506 5.635931 -2.242063 -4.213898 -29.988936 -55.960792 17.294541 -80.420102 13.687278 0.000000 0.000000 0.000000 12.180710 2.614196 0.574173 3.835510 4.146132 13.902303 -20.577258 38.774806 49.860473 -177.755468 64.299544 179.369701 0.000000 0.000000 0.000000 
2.442258 112.345428 1.626656 0.000000 0.000000 0.000000 -30.085969 -4.595292 1.221980 -76.723419 1.024590 19.681562 47.238900 15.957366 -14.554756 -7.719105 20.967523 -14.722464 0.000000 0.000000 0.000000 -36.596905 8.925292 0.614591 -74.507720 4.720024 -14.421620 47.068579 -20.114576 5.130393 -10.871150 -23.365657 4.046653 0.000000 0.000000 0.000000 -20.968828 -4.975267 1.537035 -84.819434 5.584575 9.848426 14.452052 1.132137 -1.022175 8.861671 0.567068 -1.389752 0.000000 0.000000 0.000000 11.919035 0.439907 -2.938489 2.195715 0.626623 -0.552976 0.000000 0.000000 0.000000 11.582910 2.177056 0.412176 4.995361 5.450306 -2.258330 -3.919533 -29.808096 -56.258236 16.517875 -80.050172 12.683724 0.000000 0.000000 0.000000 11.785216 2.388208 0.639132 3.793535 3.857171 13.981481 -20.256495 38.802585 49.925152 -177.971248 64.357205 179.608116 0.000000 0.000000 0.000000 
2.459986 112.317657 1.736036 0.000000 0.000000 0.000000 -30.148342 -4.673678 1.239593 -76.780328 0.980186 19.698860 47.664151 16.071141 -14.716198 -7.441246 21.128063 -14.809071 0.000000 0.000000 0.000000 -36.631087 8.823329 0.623362 -74.546843 4.686274 -14.405931 47.330055 -20.104853 5.168106 -10.737054 -23.346801 4.065393 0.000000 0.000000 0.000000 -21.075595 -5.642792 1.456938 -83.935833 5.993486 10.269867 13.873900 0.826735 -0.947588 8.471268 0.416413 -1.305761 0.000000 0.000000 0.000000 11.488096 0.272335 -2.823765 2.032208 0.578109 -0.534358 0.000000 0.000000 0.000000 11.169538 1.973783 0.482995 4.909567 5.265412 -2.280707 -3.602723 -29.643349 -56.530662 15.860855 -79.667087 11.795840 0.000000 0.000000 0.000000 11.369232 2.172011 0.700209 3.732793 3.591713 14.056960 -19.971164 38.763567 50.031224 -178.138123 64.439228 179.800140 0.000000 0.000000 0.000000 
2.475991 112.330246 1.874449 0.000000 0.000000 0.000000 -30.199722 -4.669900 1.296423 -76.829922 0.943318 19.741019 48.067678 16.181265 -14.875624 -7.184111 21.282818 -14.894655 0.000000 0.000000 0.000000 -36.654743 8.778952 0.561091 -74.572627 4.702864 -14.448253 47.476157 -20.092823 5.169171 -10.695368 -23.308073 4.049581 0.000000 0.000000 0.000000 -21.196010 -6.289519 1.376497 -83.046364 6.386612 10.719633 13.282955 0.540179 -0.877768 8.071663 0.276827 -1.223007 0.000000 0.000000 0.000000 11.008341 0.112894 -2.724907 1.846409 0.534489 -0.522640 0.000000 0.000000 0.000000 10.744384 1.772565 0.552802 4.812883 5.065859 -2.297599 -3.288695 -29.513282 -56.785872 15.318540 -79.287404 11.020757 0.000000 0.000000 0.000000 10.930427 1.963838 0.757942 3.650273 3.334205 14.132566 -19.703858 38.630922 50.113030 -178.283114 64.570334 179.956087 0.000000 0.000000 0.000000 
2.500792 112.341179 1.970007 0.000000 0.000000 0.000000 -30.259493 -4.689281 1.366826 -76.884352 0.890775 19.792473 48.393342 16.269932 -15.016417 -6.984691 21.409723 -14.976725 0.000000 0.000000 0.000000 -36.645905 8.710699 0.472871 -74.568098 4.718626 -14.509779 47.624457 -20.075512 5.162499 -10.639609 -23.266408 4.026307 0.000000 0.000000 0.000000 -21.344293 -6.872510 1.301415 -82.272046 6.821505 11.254211 12.712105 0.286262 -0.815454 7.682879 0.154727 -1.143642 0.000000 0.000000 0.000000 10.550665 -0.024315 -2.633965 1.671965 0.503944 -0.513045 0.000000 0.000000 0.000000 10.323860 1.582876 0.615280 4.717265 4.885526 -2.331707 -2.891557 -29.406372 -57.005391 14.933017 -78.878221 10.385041 0.000000 0.000000 0.000000 10.491077 1.768694 0.806915 3.562273 3.107278 14.189630 -19.421359 38.453094 50.185426 -178.419636 64.727886 -179.895612 0.000000 0.000000 0.000000 
